# xmcd CD database file
#
# Track frame offsets:
#	150
#	13337
#	27408
#	41800
#	55332
#	69180
#	83357
#	96450
#	111904
#	126041
#	138549
#	150302
#	166905
#	185621
#	197518
#	210895
#	225588
#	238054
#	251679
#	279830
#	292370
#	306429
#
# Disc length: 4272 seconds
#
# Revision: 0
# Processed by: cddbd v1.5.2PL0 Copyright (c) Steve Scherf et al.
# Submitted via: CDex 1.70beta2
#
DISCID=3710ae16
DTITLE=Various Artist - Guitar: greatest works CD 01
DYEAR=2008
DGENRE=Jazz
TTITLE0=EDDIE LANG- Eddie's Twister
TTITLE1=EDDIE LANG w BIX and TRAM - For No Reason At All In C
TTITLE2=LONNIE JOHNSON - BLIND WILLIE DUNN   - Bull Frog Moan
TTITLE3=EDDIE LANG - CARL KRESS - Pickin' My Way
TTITLE4=DICK McDONOUGH w RED NICHOLS and HIS FIVE PENNIES - Riverboat Shuffle
TTITLE5=DICK McDONOUGH w JAM SESSION AT VICTOR - Honeysuckle Rose
TTITLE6=DJANGO REINHARDT w QHCF - You're Driving Me Crazy
TTITLE7=DJANGO REINHARDT w QHCF - Chicago
TTITLE8=DJANGO REINHARDT w QHCF - Sweet Georgia Brown
TTITLE9=ALLAN REUSS w JACK TEAGARDEN - Pickin' For Patsy
TTITLE10=AL CASEY w FATS WALLER - Buck Jumpin'
TTITLE11=OSCAR MOORE w NAT KING COLE TRIO - What Is This Thing Called Love 
TTITLE12=TINY GRIMES w ART TATUM TRIO - Topsy
TTITLE13=GEORGE BARNES w BUD FREEMAN - I Guess I'll Have To Change My Plan
TTITLE14=LES PAUL w WILLIE SMITH ORCH - Moten Swing
TTITLE15=CHARLIE CHRISTIAN w BENNY GOODMAN SEXTET - Stardust
TTITLE16=CHARLIE CHRISTIAN w BENNY GOODMAN SEXTET - Seven Come Eleven
TTITLE17=CHARLIE CHRISTIAN w BENNY GOODMAN SEXTET - Wholly Cats
TTITLE18=CHARLIE CHRISTIAN - JAMMIN' AT MINTON'S - Up On Teddy's Hilll aka Topsy 
TTITLE19=BILL DE ARANGO w DIZZY GILLESPIE ORCH - Ol' Man Rebop
TTITLE20=BILLY BAUER w LENNIE TRISTANO TRIO - Interlude
TTITLE21=BILLY BAUER w METRONOME ALL-STARS - Overtime
EXTD=YEAR: 2008
EXTT0=
EXTT1=
EXTT2=
EXTT3=
EXTT4=
EXTT5=
EXTT6=
EXTT7=
EXTT8=
EXTT9=
EXTT10=
EXTT11=
EXTT12=
EXTT13=
EXTT14=
EXTT15=
EXTT16=
EXTT17=
EXTT18=
EXTT19=
EXTT20=
EXTT21=
PLAYORDER=
